<svg id="Capa_1" enable-background="new 0 0 512.002 512.002" height="512" viewBox="0 0 512.002 512.002" width="512" xmlns="http://www.w3.org/2000/svg"><g><g><g><path d="m202.068 260c-8.262 0-15 6.738-15 15s6.738 15 15 15 15-6.738 15-15-6.739-15-15-15z"/></g><g><path d="m309.934 260c-8.262 0-15 6.738-15 15s6.738 15 15 15 15-6.738 15-15-6.738-15-15-15z"/></g><g><path d="m497.001 338h-86.443c16.574-31.318 25.443-61.704 25.443-88.275 0-15.242-1.912-30.044-5.495-44.187 46.77-10.375 81.495-52.304 81.495-101.538 0-57.346-46.654-104-104-104-47.596 0-88.571 32.351-100.506 77.242-16.322-4.882-33.605-7.518-51.494-7.518-17.9 0-35.193 2.639-51.524 7.527-5.109-19.146-15.632-36.565-30.564-50.153-19.204-17.474-44.033-27.098-69.912-27.098-57.346 0-104 46.654-104 104 0 26.9 10.293 52.446 28.984 71.93 14.411 15.023 32.625 25.213 52.509 29.612-3.582 14.142-5.493 28.943-5.493 44.183 0 26.545 8.875 56.948 25.451 88.276h-86.45c-8.284 0-15 6.716-15 15s6.716 15 15 15h104.513c2.165 3.207 4.397 6.413 6.713 9.617 5.303 7.338 10.907 14.51 16.71 21.427l-77.154 44.545c-7.174 4.142-9.632 13.316-5.49 20.49 2.778 4.813 7.82 7.502 13.004 7.502 2.544 0 5.124-.648 7.486-2.012l82.825-47.819c15.899 16.075 32.393 29.719 47.792 39.334-.256 1.938-.401 3.91-.401 5.917 0 24.813 20.187 45 45 45s45-20.187 45-45c0-2.009-.146-3.983-.402-5.923 15.408-9.618 31.893-23.24 47.799-39.325l82.821 47.817c2.362 1.364 4.941 2.012 7.486 2.012 5.184 0 10.226-2.69 13.004-7.502 4.142-7.174 1.684-16.348-5.49-20.49l-77.154-44.545c5.483-6.538 10.794-13.306 15.846-20.238 2.623-3.599 5.141-7.202 7.574-10.805h104.517c8.284 0 15-6.716 15-15s-6.716-15.003-15-15.003zm-89-308c40.804 0 74 33.196 74 74 0 36.223-26.414 66.882-61.4 72.916-17.094-38.494-47.304-69.914-84.927-88.565 7.268-33.689 37.272-58.351 72.327-58.351zm-378 74c0-40.804 33.196-74 74-74 35.344 0 65.102 24.569 72.325 58.351-37.622 18.651-67.831 50.07-84.925 88.563-35.09-5.984-61.4-36.382-61.4-72.914zm226 378c-8.271 0-15-6.729-15-15s6.729-15 15-15 15 6.729 15 15-6.729 15-15 15zm86.655-98.203-4.827-2.787c-7.175-4.144-16.349-1.684-20.49 5.49-3.883 6.725-1.966 15.208 4.199 19.655-11.813 11.395-23.668 21.021-34.685 28.132-8.062-7.608-18.918-12.287-30.852-12.287-11.936 0-22.793 4.68-30.857 12.291-11.146-7.178-22.989-16.811-34.707-28.117 6.186-4.442 8.115-12.938 4.227-19.673-4.142-7.174-13.316-9.633-20.49-5.49l-4.842 2.795c-4.4-5.103-8.701-10.386-12.858-15.805h16.527c8.284 0 15-6.716 15-15s-6.716-15-15-15h-37.109c-19.402-31.987-29.891-62.711-29.891-88.276 0-82.71 67.29-150 150-150s150 67.29 150 150c0 27.685-12.101 58.928-29.892 88.276h-37.106c-8.284 0-15 6.716-15 15s6.716 15 15 15h16.521c-4.171 5.43-8.476 10.709-12.868 15.796z"/></g></g></g></svg>